<svg width="11" height="12" viewBox="0 0 11 12" fill="none" xmlns="http://www.w3.org/2000/svg">
<g clip-path="url(#clip0_490_628)">
<path fill-rule="evenodd" clip-rule="evenodd" d="M2.23476 2.52589C1.98794 2.52589 1.78786 2.72598 1.78786 2.9728V9.22948C1.78786 9.4763 1.98794 9.67639 2.23476 9.67639H8.49145C8.73826 9.67639 8.93835 9.4763 8.93835 9.22948V2.9728C8.93835 2.72598 8.73826 2.52589 8.49145 2.52589H2.23476ZM0.894043 2.9728C0.894043 2.23234 1.4943 1.63208 2.23476 1.63208H8.49145C9.2319 1.63208 9.83216 2.23234 9.83216 2.9728V9.22948C9.83216 9.96994 9.2319 10.5702 8.49145 10.5702H2.23476C1.4943 10.5702 0.894043 9.96994 0.894043 9.22948V2.9728Z" fill="white"/>
<path fill-rule="evenodd" clip-rule="evenodd" d="M7.15052 0.738037C7.39734 0.738037 7.59743 0.938124 7.59743 1.18494V2.97257C7.59743 3.21939 7.39734 3.41947 7.15052 3.41947C6.9037 3.41947 6.70361 3.21939 6.70361 2.97257V1.18494C6.70361 0.938124 6.9037 0.738037 7.15052 0.738037Z" fill="white"/>
<path fill-rule="evenodd" clip-rule="evenodd" d="M3.57532 0.738037C3.82214 0.738037 4.02223 0.938124 4.02223 1.18494V2.97257C4.02223 3.21939 3.82214 3.41947 3.57532 3.41947C3.3285 3.41947 3.12842 3.21939 3.12842 2.97257V1.18494C3.12842 0.938124 3.3285 0.738037 3.57532 0.738037Z" fill="white"/>
<path fill-rule="evenodd" clip-rule="evenodd" d="M0.894043 4.76038C0.894043 4.51356 1.09413 4.31348 1.34095 4.31348H9.38526C9.63208 4.31348 9.83216 4.51356 9.83216 4.76038C9.83216 5.0072 9.63208 5.20729 9.38526 5.20729H1.34095C1.09413 5.20729 0.894043 5.0072 0.894043 4.76038Z" fill="white"/>
</g>
<defs>
<clipPath id="clip0_490_628">
<rect width="10.7257" height="10.7257" fill="white" transform="translate(0 0.29126)"/>
</clipPath>
</defs>
</svg>
