<svg width="13" height="12" viewBox="0 0 13 12" fill="none" xmlns="http://www.w3.org/2000/svg">
<g clip-path="url(#clip0_476_299)">
<path fill-rule="evenodd" clip-rule="evenodd" d="M3.11082 2.78775C2.84421 2.78775 2.62808 3.00388 2.62808 3.27049V10.0288C2.62808 10.2955 2.84421 10.5116 3.11082 10.5116H9.86918C10.1358 10.5116 10.3519 10.2955 10.3519 10.0288V3.27049C10.3519 3.00388 10.1358 2.78775 9.86918 2.78775H3.11082ZM1.6626 3.27049C1.6626 2.47066 2.31099 1.82227 3.11082 1.82227H9.86918C10.669 1.82227 11.3174 2.47066 11.3174 3.27049V10.0288C11.3174 10.8287 10.669 11.4771 9.86918 11.4771H3.11082C2.31099 11.4771 1.6626 10.8287 1.6626 10.0288V3.27049Z" fill="#525655"/>
<path fill-rule="evenodd" clip-rule="evenodd" d="M8.42122 0.856689C8.68783 0.856689 8.90396 1.07282 8.90396 1.33943V3.27039C8.90396 3.537 8.68783 3.75313 8.42122 3.75313C8.15461 3.75313 7.93848 3.537 7.93848 3.27039V1.33943C7.93848 1.07282 8.15461 0.856689 8.42122 0.856689Z" fill="#525655"/>
<path fill-rule="evenodd" clip-rule="evenodd" d="M4.5594 0.856689C4.82601 0.856689 5.04214 1.07282 5.04214 1.33943V3.27039C5.04214 3.537 4.82601 3.75313 4.5594 3.75313C4.29279 3.75313 4.07666 3.537 4.07666 3.27039V1.33943C4.07666 1.07282 4.29279 0.856689 4.5594 0.856689Z" fill="#525655"/>
<path fill-rule="evenodd" clip-rule="evenodd" d="M1.6626 5.20149C1.6626 4.93488 1.87873 4.71875 2.14534 4.71875H10.8347C11.1013 4.71875 11.3174 4.93488 11.3174 5.20149C11.3174 5.4681 11.1013 5.68423 10.8347 5.68423H2.14534C1.87873 5.68423 1.6626 5.4681 1.6626 5.20149Z" fill="#525655"/>
</g>
<defs>
<clipPath id="clip0_476_299">
<rect width="11.5858" height="11.5858" fill="white" transform="translate(0.697266 0.374023)"/>
</clipPath>
</defs>
</svg>
