<svg width="15" height="15" viewBox="0 0 15 15" fill="none" xmlns="http://www.w3.org/2000/svg">
<path d="M11.6705 6.79549L6.70451 1.82951C6.49353 1.61853 6.20738 1.5 5.90902 1.5H1.125C0.503672 1.5 0 2.00367 0 2.625V7.40902C1.56018e-06 7.70738 0.118529 7.99353 0.329508 8.20451L5.29549 13.1705C5.7348 13.6098 6.44712 13.6099 6.88648 13.1705L11.6705 8.38648C12.1098 7.94714 12.1098 7.23483 11.6705 6.79549ZM2.625 5.25C2.00367 5.25 1.5 4.74633 1.5 4.125C1.5 3.50367 2.00367 3 2.625 3C3.24633 3 3.75 3.50367 3.75 4.125C3.75 4.74633 3.24633 5.25 2.625 5.25ZM14.6705 8.38648L9.88648 13.1705C9.44714 13.6098 8.73483 13.6098 8.29549 13.1705L8.28705 13.1621L12.3666 9.08255C12.765 8.68413 12.9844 8.15442 12.9844 7.59098C12.9844 7.02755 12.765 6.49784 12.3666 6.09942L7.76712 1.5H8.90902C9.20738 1.5 9.49353 1.61853 9.70451 1.82951L14.6705 6.79549C15.1098 7.23483 15.1098 7.94714 14.6705 8.38648Z" fill="white"/>
</svg>
